<svg width="301" height="175" viewBox="0 0 301 175" fill="none" xmlns="http://www.w3.org/2000/svg">
<path d="M126 130.5L150.443 86.9331L175 130.5L151.609 175L126 130.5Z" fill="black"/>
<path d="M200.261 175L300.885 0H248.386C248.386 0 203.608 78.8706 175 130.5C185 148 200.261 175 200.261 175Z" fill="#2C170B"/>
<path d="M100.295 175L0 0.0407715H51.3138C51.3138 0.0407715 96.852 79.5996 126 130.5C115.98 147.925 100.295 175 100.295 175Z" fill="#AE8156"/>
<path d="M126 130.5L51.3137 0.0407715H100.295L150.443 86.9332L126 130.5Z" fill="#7D4E21"/>
<path d="M126 130.5L51.3137 0.0407715H100.295L150.443 86.9332L126 130.5Z" fill="#7D4E21"/>
<path d="M175 130.5L248.405 0.0407715H198.258L150.443 86.9332L175 130.5Z" fill="#200E03"/>
<path d="M175 130.5L248.405 0.0407715H198.258L150.443 86.9332L175 130.5Z" fill="#200E03"/>
<path d="M199.167 0.0407715L150.442 86.9332L100.295 0.0407715H199.167Z" fill="#4D2E11"/>
</svg>
