<svg width="1094" height="117" viewBox="0 0 1094 117" fill="none" xmlns="http://www.w3.org/2000/svg">
<path d="M214.853 102.714C203.755 112.321 191.741 115.796 176.062 115.796C157.431 115.796 136.356 103.838 136.356 74.9146C136.356 50.1815 154.071 35.5665 176.775 35.5665C194.694 35.5665 208.337 44.7648 212.715 57.4379C214.547 62.7524 216.176 74.3013 213.02 82.8864H165.678C166.594 86.9745 168.528 95.2529 181.153 95.2529C186.244 95.2529 194.083 94.8441 202.228 87.9965L214.853 102.714ZM188.891 68.067C188.789 62.3436 187.364 56.0071 177.793 56.0071C168.63 56.0071 166.492 64.2855 166.187 68.067H188.891Z" fill="#E3E2DB"/>
<path d="M259.345 93.5154H265.657V19.7251H259.345V0H295.692V43.6405C298.95 39.7568 308.011 36.5886 315.341 36.5886C338.147 36.5886 350.365 55.9049 349.856 76.141C349.448 99.341 336.315 114.876 315.138 114.876C303.735 114.876 299.459 111.708 295.284 108.13L293.045 113.241H259.243V93.5154H259.345ZM306.076 57.7445C300.171 57.7445 294.775 65.1031 295.386 77.0608C295.386 87.2811 300.477 95.1507 306.178 95.1507C312.491 95.1507 316.869 87.7921 316.869 76.3454C316.869 67.2493 312.694 57.7445 306.076 57.7445Z" fill="#E3E2DB"/>
<path d="M391.904 37.7128V74.0969C391.904 87.0766 393.838 93.1066 400.049 93.1066C405.343 93.1066 409.517 88.4053 409.517 81.6599V57.6423H399.642V37.7128H438.534V93.1066H445.864V113.138H417.459L413.386 103.633C410.128 107.415 404.834 115.285 392.006 115.285C369.302 115.285 361.768 103.531 361.768 78.4916V57.6423H355.455V37.7128H391.904Z" fill="#E3E2DB"/>
<path d="M451.871 113.138V93.4132H458.184V57.3357H451.871V37.7128H486.691V93.4132H493.92V113.138H451.871ZM472.234 0.306641C482.619 0.306641 488.727 8.78946 488.727 15.7392C488.727 24.0177 482.822 30.9674 472.234 30.9674C462.765 30.9674 456.046 22.9956 456.046 15.7392C456.046 8.78946 461.747 0.306641 472.234 0.306641Z" fill="#E3E2DB"/>
<path d="M501.454 113.138V93.4132H507.868V19.4185H501.556V0H536.477V93.4132H545.335V113.138H501.454Z" fill="#E3E2DB"/>
<path d="M595.935 19.6229V0H633.402V93.5154H640.631V113.138H605.506L602.96 107.517C601.026 109.357 594.408 114.467 584.023 114.467C562.846 114.467 549.204 95.6617 549.204 74.6079C549.204 51.1013 565.595 36.1797 584.023 36.1797C594.714 36.1797 600.11 40.0634 602.96 41.9031V19.6229H595.935ZM592.168 93.2088C598.073 93.2088 603.469 85.8502 602.859 73.8925C602.859 63.6722 597.768 55.8026 592.066 55.8026C585.754 55.8026 581.376 63.1612 581.376 74.6079C581.376 83.704 585.551 93.2088 592.168 93.2088Z" fill="#E3E2DB"/>
<path d="M685.021 93.5154H691.333V19.7251H685.021V0H721.368V43.6405C724.626 39.7568 733.687 36.5886 741.018 36.5886C763.824 36.5886 776.041 55.9049 775.532 76.141C775.125 99.341 761.991 114.876 740.814 114.876C729.411 114.876 725.135 111.708 720.961 108.13L718.721 113.241H684.919L685.021 93.5154ZM731.753 57.7445C725.848 57.7445 720.452 65.1031 721.062 77.0608C721.062 87.2811 726.153 95.1507 731.855 95.1507C738.167 95.1507 742.545 87.7921 742.545 76.3454C742.647 67.2493 738.371 57.7445 731.753 57.7445Z" fill="#E3E2DB"/>
<path d="M782.761 113.138V93.4132H789.175V19.4185H782.862V0H817.682V93.4132H826.54V113.138H782.761Z" fill="#E3E2DB"/>
<path d="M834.278 44.0494C840.284 40.4723 853.215 33.3181 867.061 33.3181C885.082 33.3181 907.786 40.0635 907.786 64.3877V93.8221H916.847V113.138H884.674L881.111 106.393C875.511 114.058 866.246 116 860.85 116C846.597 116 831.223 108.335 831.223 90.8582C831.223 73.7904 845.477 63.0591 862.479 63.0591C871.337 63.0591 876.631 67.4538 877.344 68.3736V63.0591C877.344 56.3137 871.133 54.5763 863.09 54.5763C854.233 54.5763 846.393 58.3578 840.692 61.5261L834.278 44.0494ZM877.242 85.6459C876.835 84.9305 874.697 81.2512 868.385 81.2512C862.378 81.2512 859.629 84.5216 859.629 89.223C859.629 93.4133 863.09 96.2749 867.57 96.2749C872.05 96.2749 875.817 93.5155 877.14 91.267L877.242 85.6459Z" fill="#E3E2DB"/>
<path d="M973.149 71.8484C972.844 64.5921 970.604 56.007 963.681 56.007C954.823 56.007 950.445 65.5119 950.445 75.3233C950.445 85.1348 956.35 93.0044 965.92 93.1066C973.862 93.2088 979.156 89.9383 984.145 84.5216L997.38 99.9542C990.355 107.619 976.814 115.387 960.524 115.387C938.431 115.387 919.189 101.998 919.189 75.1189C919.189 48.444 936.904 36.4863 956.146 36.4863C966.328 36.4863 972.335 42.1075 974.88 45.0713L977.425 37.815H995.14V71.9506L973.149 71.8484Z" fill="#E3E2DB"/>
<path d="M1004.51 93.5154H1010.72V19.7251H1004.51V0H1039.23V68.1692L1056.64 57.7445H1045.84V37.815H1087.89V57.7445H1076.28L1066.1 64.1833L1086.36 93.311H1093.9V113.036H1049.41V93.4132H1055.72L1044.32 77.163L1039.02 80.7401V93.4132H1044.62V113.138H1004.51V93.5154Z" fill="#E3E2DB"/>
<path d="M214.853 102.714C203.755 112.321 191.741 115.796 176.062 115.796C157.431 115.796 136.356 103.838 136.356 74.9146C136.356 50.1815 154.071 35.5665 176.775 35.5665C194.694 35.5665 208.337 44.7648 212.715 57.4379C214.547 62.7524 216.176 74.3013 213.02 82.8864H165.678C166.594 86.9745 168.528 95.2529 181.153 95.2529C186.244 95.2529 194.083 94.8441 202.228 87.9965L214.853 102.714ZM188.891 68.067C188.789 62.3436 187.364 56.0071 177.793 56.0071C168.63 56.0071 166.492 64.2855 166.187 68.067H188.891Z" fill="#E3E2DB"/>
<path d="M259.345 93.5154H265.657V19.7251H259.345V0H295.692V43.6405C298.95 39.7568 308.011 36.5886 315.341 36.5886C338.147 36.5886 350.365 55.9049 349.856 76.141C349.448 99.341 336.315 114.876 315.138 114.876C303.735 114.876 299.459 111.708 295.284 108.13L293.045 113.241H259.243V93.5154H259.345ZM306.076 57.7445C300.171 57.7445 294.775 65.1031 295.386 77.0608C295.386 87.2811 300.477 95.1507 306.178 95.1507C312.491 95.1507 316.869 87.7921 316.869 76.3454C316.869 67.2493 312.694 57.7445 306.076 57.7445Z" fill="#E3E2DB"/>
<path d="M391.904 37.7128V74.0969C391.904 87.0766 393.838 93.1066 400.049 93.1066C405.343 93.1066 409.517 88.4053 409.517 81.6599V57.6423H399.642V37.7128H438.534V93.1066H445.864V113.138H417.459L413.386 103.633C410.128 107.415 404.834 115.285 392.006 115.285C369.302 115.285 361.768 103.531 361.768 78.4916V57.6423H355.455V37.7128H391.904Z" fill="#E3E2DB"/>
<path d="M451.871 113.138V93.4132H458.184V57.3357H451.871V37.7128H486.691V93.4132H493.92V113.138H451.871ZM472.234 0.306641C482.619 0.306641 488.727 8.78946 488.727 15.7392C488.727 24.0177 482.822 30.9674 472.234 30.9674C462.765 30.9674 456.046 22.9956 456.046 15.7392C456.046 8.78946 461.747 0.306641 472.234 0.306641Z" fill="#E3E2DB"/>
<path d="M501.454 113.138V93.4132H507.868V19.4185H501.556V0H536.477V93.4132H545.335V113.138H501.454Z" fill="#E3E2DB"/>
<path d="M595.935 19.6229V0H633.402V93.5154H640.631V113.138H605.506L602.96 107.517C601.026 109.357 594.408 114.467 584.023 114.467C562.846 114.467 549.204 95.6617 549.204 74.6079C549.204 51.1013 565.595 36.1797 584.023 36.1797C594.714 36.1797 600.11 40.0634 602.96 41.9031V19.6229H595.935ZM592.168 93.2088C598.073 93.2088 603.469 85.8502 602.859 73.8925C602.859 63.6722 597.768 55.8026 592.066 55.8026C585.754 55.8026 581.376 63.1612 581.376 74.6079C581.376 83.704 585.551 93.2088 592.168 93.2088Z" fill="#E3E2DB"/>
<path d="M685.021 93.5154H691.333V19.7251H685.021V0H721.368V43.6405C724.626 39.7568 733.687 36.5886 741.018 36.5886C763.824 36.5886 776.041 55.9049 775.532 76.141C775.125 99.341 761.991 114.876 740.814 114.876C729.411 114.876 725.135 111.708 720.961 108.13L718.721 113.241H684.919L685.021 93.5154ZM731.753 57.7445C725.848 57.7445 720.452 65.1031 721.062 77.0608C721.062 87.2811 726.153 95.1507 731.855 95.1507C738.167 95.1507 742.545 87.7921 742.545 76.3454C742.647 67.2493 738.371 57.7445 731.753 57.7445Z" fill="#E3E2DB"/>
<path d="M782.761 113.138V93.4132H789.175V19.4185H782.862V0H817.682V93.4132H826.54V113.138H782.761Z" fill="#E3E2DB"/>
<path d="M834.278 44.0494C840.284 40.4723 853.215 33.3181 867.061 33.3181C885.082 33.3181 907.786 40.0635 907.786 64.3877V93.8221H916.847V113.138H884.674L881.111 106.393C875.511 114.058 866.246 116 860.85 116C846.597 116 831.223 108.335 831.223 90.8582C831.223 73.7904 845.477 63.0591 862.479 63.0591C871.337 63.0591 876.631 67.4538 877.344 68.3736V63.0591C877.344 56.3137 871.133 54.5763 863.09 54.5763C854.233 54.5763 846.393 58.3578 840.692 61.5261L834.278 44.0494ZM877.242 85.6459C876.835 84.9305 874.697 81.2512 868.385 81.2512C862.378 81.2512 859.629 84.5216 859.629 89.223C859.629 93.4133 863.09 96.2749 867.57 96.2749C872.05 96.2749 875.817 93.5155 877.14 91.267L877.242 85.6459Z" fill="#E3E2DB"/>
<path d="M973.149 71.8484C972.844 64.5921 970.604 56.007 963.681 56.007C954.823 56.007 950.445 65.5119 950.445 75.3233C950.445 85.1348 956.35 93.0044 965.92 93.1066C973.862 93.2088 979.156 89.9383 984.145 84.5216L997.38 99.9542C990.355 107.619 976.814 115.387 960.524 115.387C938.431 115.387 919.189 101.998 919.189 75.1189C919.189 48.444 936.904 36.4863 956.146 36.4863C966.328 36.4863 972.335 42.1075 974.88 45.0713L977.425 37.815H995.14V71.9506L973.149 71.8484Z" fill="#E3E2DB"/>
<path d="M1004.51 93.5154H1010.72V19.7251H1004.51V0H1039.23V68.1692L1056.64 57.7445H1045.84V37.815H1087.89V57.7445H1076.28L1066.1 64.1833L1086.36 93.311H1093.9V113.036H1049.41V93.4132H1055.72L1044.32 77.163L1039.02 80.7401V93.4132H1044.62V113.138H1004.51V93.5154Z" fill="#E3E2DB"/>
<path d="M55.9414 90.6617L65.4578 73.7797L74.9742 90.6617L65.9109 108L55.9414 90.6617Z" fill="black"/>
<path d="M85 108L124 40H103.5C103.5 40 86 70.5 75.0001 90.5C78.5001 97 85 108 85 108Z" fill="#2C170B"/>
<path d="M45.9718 108L7 40.0157H26.9391C26.9391 40.0157 44.6739 70.7215 56 90.5C52.1066 97.271 45.9718 108 45.9718 108Z" fill="#AE8156"/>
<path d="M56 90.5L26.9392 40.0157H45.972L65.4579 73.7797L56 90.5Z" fill="#7D4E21"/>
<path d="M56 90.5L26.9392 40.0157H45.972L65.4579 73.7797L56 90.5Z" fill="#7D4E21"/>
<path d="M75 90.5L103.523 40.0157H84.0375L65.4579 73.7797L75 90.5Z" fill="#200E03"/>
<path d="M75 90.5L103.523 40.0157H84.0375L65.4579 73.7797L75 90.5Z" fill="#200E03"/>
<path d="M84.3906 40.0157L65.4576 73.7797L45.9717 40.0157H84.3906Z" fill="#4D2E11"/>
<path d="M47.7071 108.994L55.9898 94.5404L64.1706 108.986L65.987 112.193L67.6858 108.922L75.0838 94.6778L83.2635 108.992L84.9985 112.028L86.7357 108.994L125.651 41.0093L127.365 38.0157H123.916H7H3.54819L5.26488 41.0104L44.2367 108.995L45.9722 112.022L47.7071 108.994Z" stroke="#E3E2DB" stroke-width="4"/>
</svg>
