<svg width="1095" height="116" viewBox="0 0 1095 116" fill="none" xmlns="http://www.w3.org/2000/svg">
<path d="M215.853 102.714C204.755 112.321 192.741 115.795 177.062 115.795C158.431 115.795 137.356 103.838 137.356 74.9144C137.356 50.1814 155.071 35.5664 177.775 35.5664C195.694 35.5664 209.337 44.7646 213.715 57.4378C215.547 62.7523 217.176 74.3012 214.02 82.8862H166.678C167.594 86.9743 169.528 95.2528 182.153 95.2528C187.244 95.2528 195.083 94.8439 203.228 87.9964L215.853 102.714ZM189.891 68.0668C189.789 62.3435 188.364 56.0069 178.793 56.0069C169.63 56.0069 167.492 64.2854 167.187 68.0668H189.891Z" fill="black"/>
<path d="M260.345 93.5154H266.657V19.7251H260.345V0H296.692V43.6405C299.95 39.7568 309.011 36.5886 316.341 36.5886C339.147 36.5886 351.365 55.9049 350.856 76.141C350.448 99.341 337.315 114.876 316.138 114.876C304.735 114.876 300.459 111.708 296.284 108.13L294.045 113.241H260.243V93.5154H260.345ZM307.076 57.7445C301.171 57.7445 295.775 65.1031 296.386 77.0608C296.386 87.2811 301.477 95.1507 307.178 95.1507C313.491 95.1507 317.869 87.7921 317.869 76.3454C317.869 67.2493 313.694 57.7445 307.076 57.7445Z" fill="black"/>
<path d="M392.904 37.7129V74.097C392.904 87.0768 394.838 93.1067 401.049 93.1067C406.343 93.1067 410.517 88.4054 410.517 81.66V57.6424H400.642V37.7129H439.534V93.1067H446.864V113.138H418.459L414.386 103.634C411.128 107.415 405.834 115.285 393.006 115.285C370.302 115.285 362.768 103.531 362.768 78.4917V57.6424H356.455V37.7129H392.904Z" fill="black"/>
<path d="M452.871 113.138V93.4132H459.184V57.3357H452.871V37.7128H487.691V93.4132H494.92V113.138H452.871ZM473.234 0.306641C483.619 0.306641 489.727 8.78946 489.727 15.7392C489.727 24.0177 483.822 30.9674 473.234 30.9674C463.765 30.9674 457.046 22.9956 457.046 15.7392C457.046 8.78946 462.747 0.306641 473.234 0.306641Z" fill="black"/>
<path d="M502.454 113.138V93.4132H508.868V19.4185H502.556V0H537.477V93.4132H546.335V113.138H502.454Z" fill="black"/>
<path d="M596.935 19.6229V0H634.402V93.5154H641.631V113.138H606.506L603.96 107.517C602.026 109.357 595.408 114.467 585.023 114.467C563.846 114.467 550.204 95.6617 550.204 74.6079C550.204 51.1013 566.595 36.1797 585.023 36.1797C595.714 36.1797 601.11 40.0634 603.96 41.9031V19.6229H596.935ZM593.168 93.2088C599.073 93.2088 604.469 85.8502 603.859 73.8925C603.859 63.6722 598.768 55.8026 593.066 55.8026C586.754 55.8026 582.376 63.1612 582.376 74.6079C582.376 83.704 586.551 93.2088 593.168 93.2088Z" fill="black"/>
<path d="M686.021 93.5154H692.333V19.7251H686.021V0H722.368V43.6405C725.626 39.7568 734.687 36.5886 742.018 36.5886C764.824 36.5886 777.041 55.9049 776.532 76.141C776.125 99.341 762.991 114.876 741.814 114.876C730.411 114.876 726.135 111.708 721.961 108.13L719.721 113.241H685.919L686.021 93.5154ZM732.753 57.7445C726.848 57.7445 721.452 65.1031 722.062 77.0608C722.062 87.2811 727.153 95.1507 732.855 95.1507C739.167 95.1507 743.545 87.7921 743.545 76.3454C743.647 67.2493 739.371 57.7445 732.753 57.7445Z" fill="black"/>
<path d="M783.761 113.138V93.4132H790.175V19.4185H783.862V0H818.682V93.4132H827.54V113.138H783.761Z" fill="black"/>
<path d="M835.278 44.0494C841.284 40.4723 854.215 33.3181 868.061 33.3181C886.082 33.3181 908.786 40.0635 908.786 64.3877V93.8221H917.847V113.138H885.674L882.111 106.393C876.511 114.058 867.246 116 861.85 116C847.597 116 832.223 108.335 832.223 90.8582C832.223 73.7904 846.477 63.0591 863.479 63.0591C872.337 63.0591 877.631 67.4538 878.344 68.3736V63.0591C878.344 56.3137 872.133 54.5763 864.09 54.5763C855.233 54.5763 847.393 58.3578 841.692 61.5261L835.278 44.0494ZM878.242 85.6459C877.835 84.9305 875.697 81.2512 869.385 81.2512C863.378 81.2512 860.629 84.5216 860.629 89.223C860.629 93.4133 864.09 96.2749 868.57 96.2749C873.05 96.2749 876.817 93.5155 878.14 91.267L878.242 85.6459Z" fill="black"/>
<path d="M974.149 71.8484C973.844 64.5921 971.604 56.007 964.681 56.007C955.823 56.007 951.445 65.5119 951.445 75.3233C951.445 85.1348 957.35 93.0044 966.92 93.1066C974.862 93.2088 980.156 89.9383 985.145 84.5216L998.38 99.9542C991.355 107.619 977.814 115.387 961.524 115.387C939.431 115.387 920.189 101.998 920.189 75.1189C920.189 48.444 937.904 36.4863 957.146 36.4863C967.328 36.4863 973.335 42.1075 975.88 45.0713L978.425 37.815H996.14V71.9506L974.149 71.8484Z" fill="black"/>
<path d="M1005.51 93.5154H1011.72V19.7251H1005.51V0H1040.23V68.1692L1057.64 57.7445H1046.84V37.815H1088.89V57.7445H1077.28L1067.1 64.1833L1087.36 93.311H1094.9V113.036H1050.41V93.4132H1056.72L1045.32 77.163L1040.02 80.7401V93.4132H1045.62V113.138H1005.51V93.5154Z" fill="black"/>
<path d="M215.853 102.714C204.755 112.321 192.741 115.795 177.062 115.795C158.431 115.795 137.356 103.838 137.356 74.9144C137.356 50.1814 155.071 35.5664 177.775 35.5664C195.694 35.5664 209.337 44.7646 213.715 57.4378C215.547 62.7523 217.176 74.3012 214.02 82.8862H166.678C167.594 86.9743 169.528 95.2528 182.153 95.2528C187.244 95.2528 195.083 94.8439 203.228 87.9964L215.853 102.714ZM189.891 68.0668C189.789 62.3435 188.364 56.0069 178.793 56.0069C169.63 56.0069 167.492 64.2854 167.187 68.0668H189.891Z" fill="black"/>
<path d="M260.345 93.5154H266.657V19.7251H260.345V0H296.692V43.6405C299.95 39.7568 309.011 36.5886 316.341 36.5886C339.147 36.5886 351.365 55.9049 350.856 76.141C350.448 99.341 337.315 114.876 316.138 114.876C304.735 114.876 300.459 111.708 296.284 108.13L294.045 113.241H260.243V93.5154H260.345ZM307.076 57.7445C301.171 57.7445 295.775 65.1031 296.386 77.0608C296.386 87.2811 301.477 95.1507 307.178 95.1507C313.491 95.1507 317.869 87.7921 317.869 76.3454C317.869 67.2493 313.694 57.7445 307.076 57.7445Z" fill="black"/>
<path d="M392.904 37.7129V74.097C392.904 87.0768 394.838 93.1067 401.049 93.1067C406.343 93.1067 410.517 88.4054 410.517 81.66V57.6424H400.642V37.7129H439.534V93.1067H446.864V113.138H418.459L414.386 103.634C411.128 107.415 405.834 115.285 393.006 115.285C370.302 115.285 362.768 103.531 362.768 78.4917V57.6424H356.455V37.7129H392.904Z" fill="black"/>
<path d="M452.871 113.138V93.4132H459.184V57.3357H452.871V37.7128H487.691V93.4132H494.92V113.138H452.871ZM473.234 0.306641C483.619 0.306641 489.727 8.78946 489.727 15.7392C489.727 24.0177 483.822 30.9674 473.234 30.9674C463.765 30.9674 457.046 22.9956 457.046 15.7392C457.046 8.78946 462.747 0.306641 473.234 0.306641Z" fill="black"/>
<path d="M502.454 113.138V93.4132H508.868V19.4185H502.556V0H537.477V93.4132H546.335V113.138H502.454Z" fill="black"/>
<path d="M596.935 19.6229V0H634.402V93.5154H641.631V113.138H606.506L603.96 107.517C602.026 109.357 595.408 114.467 585.023 114.467C563.846 114.467 550.204 95.6617 550.204 74.6079C550.204 51.1013 566.595 36.1797 585.023 36.1797C595.714 36.1797 601.11 40.0634 603.96 41.9031V19.6229H596.935ZM593.168 93.2088C599.073 93.2088 604.469 85.8502 603.859 73.8925C603.859 63.6722 598.768 55.8026 593.066 55.8026C586.754 55.8026 582.376 63.1612 582.376 74.6079C582.376 83.704 586.551 93.2088 593.168 93.2088Z" fill="black"/>
<path d="M686.021 93.5154H692.333V19.7251H686.021V0H722.368V43.6405C725.626 39.7568 734.687 36.5886 742.018 36.5886C764.824 36.5886 777.041 55.9049 776.532 76.141C776.125 99.341 762.991 114.876 741.814 114.876C730.411 114.876 726.135 111.708 721.961 108.13L719.721 113.241H685.919L686.021 93.5154ZM732.753 57.7445C726.848 57.7445 721.452 65.1031 722.062 77.0608C722.062 87.2811 727.153 95.1507 732.855 95.1507C739.167 95.1507 743.545 87.7921 743.545 76.3454C743.647 67.2493 739.371 57.7445 732.753 57.7445Z" fill="black"/>
<path d="M783.761 113.138V93.4132H790.175V19.4185H783.862V0H818.682V93.4132H827.54V113.138H783.761Z" fill="black"/>
<path d="M835.278 44.0494C841.284 40.4723 854.215 33.3181 868.061 33.3181C886.082 33.3181 908.786 40.0635 908.786 64.3877V93.8221H917.847V113.138H885.674L882.111 106.393C876.511 114.058 867.246 116 861.85 116C847.597 116 832.223 108.335 832.223 90.8582C832.223 73.7904 846.477 63.0591 863.479 63.0591C872.337 63.0591 877.631 67.4538 878.344 68.3736V63.0591C878.344 56.3137 872.133 54.5763 864.09 54.5763C855.233 54.5763 847.393 58.3578 841.692 61.5261L835.278 44.0494ZM878.242 85.6459C877.835 84.9305 875.697 81.2512 869.385 81.2512C863.378 81.2512 860.629 84.5216 860.629 89.223C860.629 93.4133 864.09 96.2749 868.57 96.2749C873.05 96.2749 876.817 93.5155 878.14 91.267L878.242 85.6459Z" fill="black"/>
<path d="M974.149 71.8484C973.844 64.5921 971.604 56.007 964.681 56.007C955.823 56.007 951.445 65.5119 951.445 75.3233C951.445 85.1348 957.35 93.0044 966.92 93.1066C974.862 93.2088 980.156 89.9383 985.145 84.5216L998.38 99.9542C991.355 107.619 977.814 115.387 961.524 115.387C939.431 115.387 920.189 101.998 920.189 75.1189C920.189 48.444 937.904 36.4863 957.146 36.4863C967.328 36.4863 973.335 42.1075 975.88 45.0713L978.425 37.815H996.14V71.9506L974.149 71.8484Z" fill="black"/>
<path d="M1005.51 93.5154H1011.72V19.7251H1005.51V0H1040.23V68.1692L1057.64 57.7445H1046.84V37.815H1088.89V57.7445H1077.28L1067.1 64.1833L1087.36 93.311H1094.9V113.036H1050.41V93.4132H1056.72L1045.32 77.163L1040.02 80.7401V93.4132H1045.62V113.138H1005.51V93.5154Z" fill="black"/>
<path d="M57.3845 94.8567L68.4403 75.2439L79.496 94.8567L68.9667 115L57.3845 94.8567Z" fill="black"/>
<path d="M90.9295 115L136.354 36H112.654C112.654 36 92.4107 71.5498 79.4961 94.8568C84.0193 102.723 90.9295 115 90.9295 115Z" fill="#2C170B"/>
<path d="M45.8023 115L0.526367 36.0188H23.6908C23.6908 36.0188 44.2263 71.8794 57.3845 94.8572C52.8614 102.724 45.8023 115 45.8023 115Z" fill="#AE8156"/>
<path d="M57.3846 94.857L23.6909 36.0186H45.8024L68.4404 75.2442L57.3846 94.857Z" fill="#7D4E21"/>
<path d="M57.3846 94.857L23.6909 36.0186H45.8024L68.4404 75.2442L57.3846 94.857Z" fill="#7D4E21"/>
<path d="M79.4961 94.857L112.663 36.0186H90.0254L68.4403 75.2442L79.4961 94.857Z" fill="#200E03"/>
<path d="M79.4961 94.857L112.663 36.0186H90.0254L68.4403 75.2442L79.4961 94.857Z" fill="#200E03"/>
<path d="M90.4358 36.0186L68.4402 75.2442L45.8022 36.0186H90.4358Z" fill="#4D2E11"/>
</svg>
