<svg width="348" height="348" viewBox="0 0 348 348" fill="none" xmlns="http://www.w3.org/2000/svg">
<path d="M150 221.5L174.443 177.933L199 221.5L175.609 266L150 221.5Z" fill="black"/>
<path d="M224.261 266L324.885 91H272.386C272.386 91 227.608 169.871 199 221.5C209 239 224.261 266 224.261 266Z" fill="#2C170B"/>
<path d="M124.295 266L24 91.0408H75.3138C75.3138 91.0408 120.852 170.6 150 221.5C139.98 238.925 124.295 266 124.295 266Z" fill="#AE8156"/>
<path d="M150 221.5L75.3137 91.0408H124.295L174.443 177.933L150 221.5Z" fill="#7D4E21"/>
<path d="M150 221.5L75.3137 91.0408H124.295L174.443 177.933L150 221.5Z" fill="#7D4E21"/>
<path d="M199 221.5L272.405 91.0408H222.258L174.443 177.933L199 221.5Z" fill="#200E03"/>
<path d="M199 221.5L272.405 91.0408H222.258L174.443 177.933L199 221.5Z" fill="#200E03"/>
<path d="M223.167 91.0408L174.442 177.933L124.295 91.0408H223.167Z" fill="#4D2E11"/>
</svg>
